# xmcd
#
# Track frame offsets:
#	150
#	12654
#	29750
#	46824
#	68369
#	90612
#	110181
#	125256
#	140096
#	150986
#	165910
#	192973
#	210015
#
# Disc length: 3046 seconds
#
# Revision: 1
# Processed by: cddbd v1.5.1PL0 Copyright (c) Steve Scherf et al.
# Submitted via: audiograbber 1.82.01
#
DISCID=a40be40d
DTITLE=Funny Hill - Twenty Years Of Fun
DYEAR=1900
DGENRE=Rock and Roll
TTITLE0=Hank and Bogart
TTITLE1=I Don´t Need It Done
TTITLE2=Sweet Home Alabama
TTITLE3=Rollin´ Along (beat´ n tracks)
TTITLE4=Cajun Girl
TTITLE5=Don´t Fall In Love With A Rambler
TTITLE6=Mamas Don´t Let Your Babies Grow Up To Be A Cowboys
TTITLE7=Take It Easy Rider
TTITLE8=Lucky Stardust
TTITLE9=Hard Working Girl
TTITLE10=Hole In My Heart
TTITLE11=Hard To Say Goodbye
TTITLE12=Hobo´s Lullabye
EXTD=
EXTT0=
EXTT1=
EXTT2=
EXTT3=
EXTT4=
EXTT5=
EXTT6=
EXTT7=
EXTT8=
EXTT9=
EXTT10=
EXTT11=
EXTT12=
PLAYORDER=
